# xmcd
#
# Track frame offsets: 
#        150
#        13786
#        30581
#        45929
#        62723
#        73034
#        86798
#        101385
#        116243
#        133328
#        144470
#        157273
#
# Disc length: 2237 seconds
#
# Revision: 0
# Processed by: cddbd v1.5.2PL0 Copyright (c) Steve Scherf et al.
# Submitted via: ExactAudioCopyFreeDBPlugin 1.0
#
DISCID=aa08bb0c
DTITLE=Joe Fournier - Three Chord McGyver
DYEAR=2005
DGENRE=Country
TTITLE0=Weapons Of Love Destruction
TTITLE1=Joe's #1 Hit Record Plan
TTITLE2=Regular Guy
TTITLE3=Puddle Of Love
TTITLE4=Why Am I Sittin' Here Sober
TTITLE5=Words I Should've said
TTITLE6=Lone Dark Rider
TTITLE7=Too Much Fun
TTITLE8=Mean Bastard With A Red Guitar
TTITLE9=Hogwild
TTITLE10=Big Moon Pie
TTITLE11=Cheticamp Girl
EXTD=
EXTT0=
EXTT1=
EXTT2=
EXTT3=
EXTT4=
EXTT5=
EXTT6=
EXTT7=
EXTT8=
EXTT9=
EXTT10=
EXTT11=
PLAYORDER=
